{
    "asset": {
        "version": "2.0",
        "generator": "Open Asset Import Library (assimp v3.1.59755898)"
    },
    "accessors": [
        {
            "bufferView": 0,
            "byteOffset": 0,
            "componentType": 5126,
            "count": 10003,
            "type": "VEC3",
            "max": [
                0.2604409158229828,
                0.13461410999298097,
                0.3199816346168518
            ],
            "min": [
                -0.17400822043418885,
                -3.227480888366699,
                -0.1722647249698639
            ]
        },
        {
            "bufferView": 1,
            "byteOffset": 0,
            "componentType": 5126,
            "count": 10003,
            "type": "VEC3",
            "max": [
                0.9999036192893982,
                0.9999467730522156,
                1.0
            ],
            "min": [
                -0.9998157024383545,
                -0.9999378323554993,
                -1.0
            ]
        },
        {
            "bufferView": 2,
            "byteOffset": 0,
            "componentType": 5126,
            "count": 10003,
            "type": "VEC4",
            "max": [
                1.0,
                1.0,
                1.0,
                1.0
            ],
            "min": [
                -1.0,
                -1.0,
                -1.0,
                -1.0
            ]
        },
        {
            "bufferView": 3,
            "byteOffset": 0,
            "componentType": 5126,
            "count": 10003,
            "type": "VEC2",
            "max": [
                1.0000001192092896,
                0.9999939203262329
            ],
            "min": [
                0.00003833758819382638,
                0.022448956966400148
            ]
        },
        {
            "bufferView": 4,
            "byteOffset": 0,
            "componentType": 5123,
            "count": 30048,
            "type": "SCALAR",
            "max": [
                10002.0
            ],
            "min": [
                0.0
            ]
        }
    ],
    "buffers": [
        {
            "byteLength": 540240,
            "uri": "final%20mesh%20fishing.bin"
        }
    ],
    "bufferViews": [
        {
            "buffer": 0,
            "byteOffset": 0,
            "byteLength": 120036,
            "target": 34962
        },
        {
            "buffer": 0,
            "byteOffset": 120036,
            "byteLength": 120036,
            "target": 34962
        },
        {
            "buffer": 0,
            "byteOffset": 240072,
            "byteLength": 160048,
            "target": 34962
        },
        {
            "buffer": 0,
            "byteOffset": 400120,
            "byteLength": 80024,
            "target": 34962
        },
        {
            "buffer": 0,
            "byteOffset": 480144,
            "byteLength": 60096,
            "target": 34963
        }
    ],
    "materials": [
        {
            "name": "Material.001",
            "pbrMetallicRoughness": {
                "baseColorFactor": [
                    0.176380917429924,
                    0.043849870562553409,
                    0.02892351523041725,
                    1.0
                ],
                "metallicFactor": 0.0
            }
        }
    ],
    "meshes": [
        {
            "name": "Torus.004",
            "primitives": [
                {
                    "mode": 4,
                    "material": 0,
                    "indices": 4,
                    "attributes": {
                        "POSITION": 0,
                        "NORMAL": 1,
                        "TANGENT": 2,
                        "TEXCOORD_0": 3
                    }
                }
            ]
        }
    ],
    "nodes": [
        {
            "name": "RootNode",
            "matrix": [
                0.009999999776482582,
                0.0,
                0.0,
                0.0,
                0.0,
                0.009999999776482582,
                0.0,
                0.0,
                0.0,
                0.0,
                0.009999999776482582,
                0.0,
                0.0,
                0.0,
                0.0,
                1.0
            ],
            "children": [
                1,
                2,
                3,
                4
            ]
        },
        {
            "name": "Light",
            "matrix": [
                -29.086477279663087,
                -5.5189056396484379,
                -95.51712036132813,
                0.0,
                56.639320373535159,
                79.46722412109375,
                -21.839126586914064,
                0.0,
                77.11007690429688,
                -60.452476501464847,
                -19.988344192504884,
                0.0,
                407.6245422363281,
                590.38623046875,
                -100.54539489746094,
                1.0
            ]
        },
        {
            "name": "Camera",
            "matrix": [
                -65.15581512451172,
                -44.527137756347659,
                -61.417049407958987,
                0.0,
                -32.40134811401367,
                89.5395736694336,
                -30.542085647583009,
                0.0,
                68.59207153320313,
                0.000008666908797749784,
                -72.76761627197266,
                0.0,
                735.88916015625,
                495.8309326171875,
                692.5791015625,
                1.0
            ]
        },
        {
            "name": "Empty",
            "matrix": [
                0.5879561305046082,
                2.0334980487823488,
                -99.97758483886719,
                0.0,
                0.038819365203380588,
                99.97930908203125,
                2.033761501312256,
                0.0,
                99.9982681274414,
                -0.05076829716563225,
                0.5870451927185059,
                0.0,
                -143.14785766601563,
                61.302711486816409,
                -0.29072099924087527,
                1.0
            ]
        },
        {
            "name": "Torus.004",
            "matrix": [
                -4.279453754425049,
                -99.90474700927735,
                -0.8533468246459961,
                0.0,
                -1.643340826034546,
                0.9244017004966736,
                -99.98222351074219,
                0.0,
                99.89488220214844,
                -4.264670372009277,
                -1.6813349723815919,
                0.0,
                1.590401370212189e-16,
                -2.5917739868164064,
                -157.71751403808595,
                1.0
            ],
            "mesh": 0
        }
    ],
    "scenes": [
        {
            "nodes": [
                0
            ]
        }
    ],
    "scene": 0
}